<svg width="17" height="17" viewBox="0 0 17 17" fill="none" xmlns="http://www.w3.org/2000/svg">
<g clip-path="url(#clip0_1_682)">
<path d="M11.74 0.0499992C12.62 0.0899992 13.22 0.229999 13.75 0.439999C14.3066 0.644111 14.8093 0.972433 15.22 1.4C15.69 1.86 15.97 2.32 16.18 2.87C16.39 3.4 16.53 4 16.57 4.89C16.61 5.77 16.62 6.05 16.62 8.31C16.62 10.57 16.61 10.85 16.57 11.74C16.5569 12.4307 16.4249 13.114 16.18 13.76C15.9734 14.3154 15.6454 14.8176 15.22 15.23C14.76 15.69 14.3 15.98 13.75 16.19C13.22 16.39 12.62 16.53 11.74 16.57C10.85 16.62 10.57 16.62 8.31 16.62C6.05 16.62 5.77 16.62 4.88 16.57C4.19366 16.5548 3.51453 16.4264 2.87 16.19C2.31457 15.9826 1.81016 15.6583 1.39093 15.239C0.971695 14.8198 0.647424 14.3154 0.440002 13.76C0.195059 13.114 0.0631184 12.4307 0.0499878 11.74C0.00998779 10.85 0 10.57 0 8.31C0 6.05 0.00998779 5.77 0.0499878 4.89C0.0899878 4 0.230002 3.4 0.440002 2.87C0.644269 2.31588 0.968713 1.81386 1.39001 1.4C1.86001 0.930001 2.32 0.649999 2.87 0.439999C3.51243 0.194831 4.1925 0.0628779 4.88 0.0499992C5.77 0.00999924 6.05 0 8.31 0C10.57 0 10.85 0.00999924 11.74 0.0499992ZM8.31 1.5C6.09 1.5 5.83001 1.51 4.95001 1.55C4.14001 1.58 3.69997 1.72 3.40997 1.83C3.04744 1.96242 2.71822 2.17242 2.44531 2.44533C2.1724 2.71824 1.96243 3.04747 1.83002 3.41C1.72002 3.7 1.57999 4.14 1.54999 4.95C1.50042 6.06927 1.48376 7.18975 1.5 8.31C1.5 10.53 1.50999 10.79 1.54999 11.67C1.57999 12.48 1.72002 12.92 1.83002 13.21C1.98002 13.6 2.16001 13.88 2.45001 14.17C2.74001 14.46 3.01997 14.64 3.40997 14.79C3.69997 14.91 4.14001 15.04 4.95001 15.08C5.83001 15.12 6.09 15.13 8.31 15.13C10.53 15.13 10.79 15.12 11.67 15.08C12.1964 15.0752 12.7179 14.977 13.21 14.79C13.6 14.64 13.88 14.46 14.17 14.17C14.46 13.88 14.64 13.6 14.79 13.21C14.9 12.92 15.04 12.48 15.07 11.67C15.11 10.79 15.12 10.53 15.12 8.31C15.12 6.09 15.11 5.83 15.07 4.95C15.0669 4.42429 14.9722 3.90314 14.79 3.41C14.6576 3.04747 14.4476 2.71824 14.1747 2.44533C13.9018 2.17242 13.5726 1.96242 13.21 1.83C12.7169 1.64782 12.1957 1.55306 11.67 1.55C10.5507 1.50043 9.43025 1.48376 8.31 1.5Z" fill="#1C1C1C"/>
<path d="M8.34997 11.18C7.60074 11.18 6.8822 10.8824 6.35241 10.3526C5.82262 9.82277 5.52502 9.10422 5.52502 8.35498C5.52502 7.60575 5.82262 6.8872 6.35241 6.35741C6.8822 5.82762 7.60074 5.52998 8.34997 5.52998C8.73509 5.50706 9.12085 5.56312 9.48352 5.69473C9.84618 5.82633 10.1781 6.03071 10.4589 6.29528C10.7397 6.55986 10.9634 6.87905 11.1163 7.23325C11.2693 7.58745 11.3481 7.96918 11.3481 8.35498C11.3481 8.74079 11.2693 9.12252 11.1163 9.47672C10.9634 9.83092 10.7397 10.1501 10.4589 10.4147C10.1781 10.6793 9.84618 10.8836 9.48352 11.0152C9.12085 11.1468 8.73509 11.2029 8.34997 11.18ZM4 8.34998C3.97174 8.93945 4.06342 9.52851 4.26953 10.0815C4.47564 10.6345 4.79191 11.1398 5.19909 11.567C5.60627 11.9942 6.09589 12.3342 6.63836 12.5666C7.18084 12.7989 7.76484 12.9187 8.35498 12.9187C8.94512 12.9187 9.52912 12.7989 10.0716 12.5666C10.6141 12.3342 11.1037 11.9942 11.5109 11.567C11.9181 11.1398 12.2343 10.6345 12.4404 10.0815C12.6465 9.52851 12.7383 8.93945 12.71 8.34998C12.6564 7.23106 12.1741 6.17572 11.3633 5.40281C10.5524 4.6299 9.47518 4.19873 8.35498 4.19873C7.23477 4.19873 6.15758 4.6299 5.34674 5.40281C4.53589 6.17572 4.05363 7.23106 4 8.34998Z" fill="#1C1C1C"/>
<path d="M14.37 5.19C14.3674 5.50309 14.2426 5.80278 14.0222 6.0251C13.8017 6.24743 13.5031 6.37479 13.19 6.38C12.9009 6.34245 12.6354 6.20097 12.4431 5.98199C12.2507 5.763 12.1446 5.48148 12.1446 5.19C12.1446 4.89852 12.2507 4.617 12.4431 4.39801C12.6354 4.17903 12.9009 4.03755 13.19 4C13.84 4 14.37 4.53 14.37 5.19Z" fill="#1C1C1C"/>
</g>
<defs>
<clipPath id="clip0_1_682">
<rect width="17" height="17" fill="white"/>
</clipPath>
</defs>
</svg>
