<svg width="19" height="16" viewBox="0 0 19 16" fill="none" xmlns="http://www.w3.org/2000/svg">
<path d="M5.84998 15.0398C12.87 15.0398 16.71 9.2498 16.71 4.2398L16.7 3.7398C17.4459 3.20256 18.0922 2.53927 18.61 1.7798C17.91 2.0798 17.17 2.2898 16.41 2.3698C17.21 1.8998 17.81 1.1498 18.09 0.269801C17.35 0.709801 16.52 1.0298 15.67 1.1998C14.9751 0.463508 14.017 0.0322902 13.0051 0.000433798C11.9932 -0.0314226 11.0098 0.338672 10.27 1.0298C9.78395 1.4849 9.42632 2.06004 9.23322 2.69729C9.04011 3.33455 9.01829 4.01144 9.16998 4.6598C7.65445 4.58558 6.17123 4.19489 4.8158 3.51287C3.46036 2.83084 2.26274 1.8726 1.29999 0.699801C0.810175 1.53361 0.659528 2.52377 0.87915 3.46554C1.09877 4.40731 1.67186 5.22867 2.47998 5.7598C1.87051 5.74612 1.27346 5.58485 0.73999 5.2898V5.3298C0.743598 6.21006 1.05114 7.06205 1.61053 7.74171C2.16993 8.42137 2.94687 8.88698 3.81 9.0598C3.25 9.2098 2.66002 9.2298 2.08002 9.1198C2.32968 9.87459 2.80689 10.5336 3.44611 11.0063C4.08532 11.479 4.85521 11.7422 5.65002 11.7598C4.046 13.0049 2.01644 13.5689 0 13.3298C1.74539 14.4496 3.77625 15.0433 5.84998 15.0398Z" fill="#1C1C1C"/>
</svg>
