<svg width="21" height="15" viewBox="0 0 21 15" fill="none" xmlns="http://www.w3.org/2000/svg">
<path d="M21.37 6.71V8.33C21.37 10.06 21.15 11.79 21.15 11.79C21.15 11.79 20.95 13.26 20.31 13.91C19.49 14.76 18.58 14.77 18.16 14.82C15.17 15.04 10.68 15.04 10.68 15.04C10.68 15.04 5.12998 14.99 3.41998 14.83C2.93998 14.74 1.88 14.76 1.06 13.91C0.419998 13.26 0.210022 11.79 0.210022 11.79C0.210022 11.79 0 10.06 0 8.33V6.71C0 4.98 0.210022 3.24 0.210022 3.24C0.210022 3.24 0.419998 1.77 1.06 1.12C1.88 0.269999 2.79001 0.270001 3.20001 0.220001C6.19001 1.2219e-06 10.68 0 10.68 0H10.69C10.69 0 15.17 1.2219e-06 18.16 0.220001C18.58 0.270001 19.49 0.269999 20.31 1.12C20.95 1.77 21.15 3.24 21.15 3.24C21.15 3.24 21.37 4.98 21.37 6.71ZM15.04 7.53L8.71002 4.75V10.29L15.04 7.53Z" fill="#1C1C1C"/>
</svg>
