<svg width="18" height="19" viewBox="0 0 18 19" fill="none" xmlns="http://www.w3.org/2000/svg">
<path d="M0.27002 6.78H3.67999V18.42H0.27002V6.78ZM3.96002 3.1C3.96002 4.25 3.06998 5.2 1.97998 5.2C0.87998 5.2 0 4.25 0 3.1C0 1.94 0.87998 1 1.97998 1C3.06998 1 3.96002 1.94 3.96002 3.1Z" fill="#1C1C1C"/>
<path d="M6 6.28002H9.40002V7.87002H9.45001C9.78825 7.28104 10.2809 6.79559 10.8748 6.46604C11.4686 6.13649 12.1413 5.97536 12.82 6.00002C16.41 6.00002 17.08 8.40002 17.08 11.52V17.88H13.53V12.24C13.53 10.89 13.51 9.16002 11.69 9.16002C9.83 9.16002 9.56 10.63 9.56 12.14V17.88H6.01001L6 6.28002Z" fill="#1C1C1C"/>
</svg>
